<svg class="rich-terminal" viewBox="0 0 1482 782.0" xmlns="http://www.w3.org/2000/svg">
    <!-- Generated with Rich https://www.textualize.io -->
    <style>

    @font-face {
        font-family: "Fira Code";
        src: local("FiraCode-Regular"),
                url("https://cdnjs.cloudflare.com/ajax/libs/firacode/6.2.0/woff2/FiraCode-Regular.woff2") format("woff2"),
                url("https://cdnjs.cloudflare.com/ajax/libs/firacode/6.2.0/woff/FiraCode-Regular.woff") format("woff");
        font-style: normal;
        font-weight: 400;
    }
    @font-face {
        font-family: "Fira Code";
        src: local("FiraCode-Bold"),
                url("https://cdnjs.cloudflare.com/ajax/libs/firacode/6.2.0/woff2/FiraCode-Bold.woff2") format("woff2"),
                url("https://cdnjs.cloudflare.com/ajax/libs/firacode/6.2.0/woff/FiraCode-Bold.woff") format("woff");
        font-style: bold;
        font-weight: 700;
    }

    .terminal-3474482799-matrix {
        font-family: Fira Code, monospace;
        font-size: 20px;
        line-height: 24.4px;
        font-variant-east-asian: full-width;
    }

    .terminal-3474482799-title {
        font-size: 18px;
        font-weight: bold;
        font-family: arial;
    }

    .terminal-3474482799-r1 { fill: #c5c8c6 }
.terminal-3474482799-r2 { fill: #e0e0e0 }
.terminal-3474482799-r3 { fill: #ddedf9;font-weight: bold }
.terminal-3474482799-r4 { fill: #7f7f7f }
.terminal-3474482799-r5 { fill: #585858 }
.terminal-3474482799-r6 { fill: #0178d4 }
.terminal-3474482799-r7 { fill: #e0e0e0;font-weight: bold }
.terminal-3474482799-r8 { fill: #1e1e1e }
.terminal-3474482799-r9 { fill: #191919 }
.terminal-3474482799-r10 { fill: #7ae998 }
.terminal-3474482799-r11 { fill: #0a180e;font-weight: bold }
.terminal-3474482799-r12 { fill: #008139 }
.terminal-3474482799-r13 { fill: #b93c5b }
.terminal-3474482799-r14 { fill: #58d1eb;font-weight: bold }
.terminal-3474482799-r15 { fill: #fd971f;font-weight: bold }
.terminal-3474482799-r16 { fill: #98e024 }
    </style>

    <defs>
    <clipPath id="terminal-3474482799-clip-terminal">
      <rect x="0" y="0" width="1463.0" height="731.0" />
    </clipPath>
    <clipPath id="terminal-3474482799-line-0">
    <rect x="0" y="1.5" width="1464" height="24.65"/>
            </clipPath>
<clipPath id="terminal-3474482799-line-1">
    <rect x="0" y="25.9" width="1464" height="24.65"/>
            </clipPath>
<clipPath id="terminal-3474482799-line-2">
    <rect x="0" y="50.3" width="1464" height="24.65"/>
            </clipPath>
<clipPath id="terminal-3474482799-line-3">
    <rect x="0" y="74.7" width="1464" height="24.65"/>
            </clipPath>
<clipPath id="terminal-3474482799-line-4">
    <rect x="0" y="99.1" width="1464" height="24.65"/>
            </clipPath>
<clipPath id="terminal-3474482799-line-5">
    <rect x="0" y="123.5" width="1464" height="24.65"/>
            </clipPath>
<clipPath id="terminal-3474482799-line-6">
    <rect x="0" y="147.9" width="1464" height="24.65"/>
            </clipPath>
<clipPath id="terminal-3474482799-line-7">
    <rect x="0" y="172.3" width="1464" height="24.65"/>
            </clipPath>
<clipPath id="terminal-3474482799-line-8">
    <rect x="0" y="196.7" width="1464" height="24.65"/>
            </clipPath>
<clipPath id="terminal-3474482799-line-9">
    <rect x="0" y="221.1" width="1464" height="24.65"/>
            </clipPath>
<clipPath id="terminal-3474482799-line-10">
    <rect x="0" y="245.5" width="1464" height="24.65"/>
            </clipPath>
<clipPath id="terminal-3474482799-line-11">
    <rect x="0" y="269.9" width="1464" height="24.65"/>
            </clipPath>
<clipPath id="terminal-3474482799-line-12">
    <rect x="0" y="294.3" width="1464" height="24.65"/>
            </clipPath>
<clipPath id="terminal-3474482799-line-13">
    <rect x="0" y="318.7" width="1464" height="24.65"/>
            </clipPath>
<clipPath id="terminal-3474482799-line-14">
    <rect x="0" y="343.1" width="1464" height="24.65"/>
            </clipPath>
<clipPath id="terminal-3474482799-line-15">
    <rect x="0" y="367.5" width="1464" height="24.65"/>
            </clipPath>
<clipPath id="terminal-3474482799-line-16">
    <rect x="0" y="391.9" width="1464" height="24.65"/>
            </clipPath>
<clipPath id="terminal-3474482799-line-17">
    <rect x="0" y="416.3" width="1464" height="24.65"/>
            </clipPath>
<clipPath id="terminal-3474482799-line-18">
    <rect x="0" y="440.7" width="1464" height="24.65"/>
            </clipPath>
<clipPath id="terminal-3474482799-line-19">
    <rect x="0" y="465.1" width="1464" height="24.65"/>
            </clipPath>
<clipPath id="terminal-3474482799-line-20">
    <rect x="0" y="489.5" width="1464" height="24.65"/>
            </clipPath>
<clipPath id="terminal-3474482799-line-21">
    <rect x="0" y="513.9" width="1464" height="24.65"/>
            </clipPath>
<clipPath id="terminal-3474482799-line-22">
    <rect x="0" y="538.3" width="1464" height="24.65"/>
            </clipPath>
<clipPath id="terminal-3474482799-line-23">
    <rect x="0" y="562.7" width="1464" height="24.65"/>
            </clipPath>
<clipPath id="terminal-3474482799-line-24">
    <rect x="0" y="587.1" width="1464" height="24.65"/>
            </clipPath>
<clipPath id="terminal-3474482799-line-25">
    <rect x="0" y="611.5" width="1464" height="24.65"/>
            </clipPath>
<clipPath id="terminal-3474482799-line-26">
    <rect x="0" y="635.9" width="1464" height="24.65"/>
            </clipPath>
<clipPath id="terminal-3474482799-line-27">
    <rect x="0" y="660.3" width="1464" height="24.65"/>
            </clipPath>
<clipPath id="terminal-3474482799-line-28">
    <rect x="0" y="684.7" width="1464" height="24.65"/>
            </clipPath>
    </defs>

    <rect fill="#292929" stroke="rgba(255,255,255,0.35)" stroke-width="1" x="1" y="1" width="1480" height="780" rx="8"/><text class="terminal-3474482799-title" fill="#c5c8c6" text-anchor="middle" x="740" y="27">BaixarMusicas</text>
            <g transform="translate(26,22)">
            <circle cx="0" cy="0" r="7" fill="#ff5f57"/>
            <circle cx="22" cy="0" r="7" fill="#febc2e"/>
            <circle cx="44" cy="0" r="7" fill="#28c840"/>
            </g>
        
    <g transform="translate(9, 41)" clip-path="url(#terminal-3474482799-clip-terminal)">
    <rect fill="#242f38" x="0" y="1.5" width="12.2" height="24.65" shape-rendering="crispEdges"/><rect fill="#242f38" x="12.2" y="1.5" width="12.2" height="24.65" shape-rendering="crispEdges"/><rect fill="#242f38" x="24.4" y="1.5" width="61" height="24.65" shape-rendering="crispEdges"/><rect fill="#242f38" x="85.4" y="1.5" width="12.2" height="24.65" shape-rendering="crispEdges"/><rect fill="#242f38" x="97.6" y="1.5" width="536.8" height="24.65" shape-rendering="crispEdges"/><rect fill="#242f38" x="634.4" y="1.5" width="158.6" height="24.65" shape-rendering="crispEdges"/><rect fill="#242f38" x="793" y="1.5" width="549" height="24.65" shape-rendering="crispEdges"/><rect fill="#242f38" x="1342" y="1.5" width="12.2" height="24.65" shape-rendering="crispEdges"/><rect fill="#242f38" x="1354.2" y="1.5" width="0" height="24.65" shape-rendering="crispEdges"/><rect fill="#242f38" x="1354.2" y="1.5" width="97.6" height="24.65" shape-rendering="crispEdges"/><rect fill="#242f38" x="1451.8" y="1.5" width="12.2" height="24.65" shape-rendering="crispEdges"/><rect fill="#0178d4" x="0" y="25.9" width="12.2" height="24.65" shape-rendering="crispEdges"/><rect fill="#0178d4" x="12.2" y="25.9" width="109.8" height="24.65" shape-rendering="crispEdges"/><rect fill="#0178d4" x="122" y="25.9" width="12.2" height="24.65" shape-rendering="crispEdges"/><rect fill="#1e1e1e" x="134.2" y="25.9" width="12.2" height="24.65" shape-rendering="crispEdges"/><rect fill="#1e1e1e" x="146.4" y="25.9" width="85.4" height="24.65" shape-rendering="crispEdges"/><rect fill="#1e1e1e" x="231.8" y="25.9" width="12.2" height="24.65" shape-rendering="crispEdges"/><rect fill="#1e1e1e" x="244" y="25.9" width="12.2" height="24.65" shape-rendering="crispEdges"/><rect fill="#1e1e1e" x="256.2" y="25.9" width="61" height="24.65" shape-rendering="crispEdges"/><rect fill="#1e1e1e" x="317.2" y="25.9" width="12.2" height="24.65" shape-rendering="crispEdges"/><rect fill="#1e1e1e" x="329.4" y="25.9" width="1134.6" height="24.65" shape-rendering="crispEdges"/><rect fill="#1e1e1e" x="0" y="50.3" width="12.2" height="24.65" shape-rendering="crispEdges"/><rect fill="#1e1e1e" x="12.2" y="50.3" width="109.8" height="24.65" shape-rendering="crispEdges"/><rect fill="#1e1e1e" x="122" y="50.3" width="12.2" height="24.65" shape-rendering="crispEdges"/><rect fill="#1e1e1e" x="134.2" y="50.3" width="1329.8" height="24.65" shape-rendering="crispEdges"/><rect fill="#1e1e1e" x="0" y="74.7" width="1464" height="24.65" shape-rendering="crispEdges"/><rect fill="#1e1e1e" x="0" y="99.1" width="12.2" height="24.65" shape-rendering="crispEdges"/><rect fill="#1e1e1e" x="12.2" y="99.1" width="402.6" height="24.65" shape-rendering="crispEdges"/><rect fill="#1e1e1e" x="414.8" y="99.1" width="622.2" height="24.65" shape-rendering="crispEdges"/><rect fill="#1e1e1e" x="1037" y="99.1" width="414.8" height="24.65" shape-rendering="crispEdges"/><rect fill="#1e1e1e" x="1451.8" y="99.1" width="12.2" height="24.65" shape-rendering="crispEdges"/><rect fill="#1e1e1e" x="0" y="123.5" width="12.2" height="24.65" shape-rendering="crispEdges"/><rect fill="#1e1e1e" x="12.2" y="123.5" width="1439.6" height="24.65" shape-rendering="crispEdges"/><rect fill="#1e1e1e" x="1451.8" y="123.5" width="12.2" height="24.65" shape-rendering="crispEdges"/><rect fill="#1e1e1e" x="0" y="147.9" width="12.2" height="24.65" shape-rendering="crispEdges"/><rect fill="#191919" x="12.2" y="147.9" width="12.2" height="24.65" shape-rendering="crispEdges"/><rect fill="#1e1e1e" x="24.4" y="147.9" width="695.4" height="24.65" shape-rendering="crispEdges"/><rect fill="#1e1e1e" x="719.8" y="147.9" width="12.2" height="24.65" shape-rendering="crispEdges"/><rect fill="#191919" x="732" y="147.9" width="12.2" height="24.65" shape-rendering="crispEdges"/><rect fill="#1e1e1e" x="744.2" y="147.9" width="695.4" height="24.65" shape-rendering="crispEdges"/><rect fill="#1e1e1e" x="1439.6" y="147.9" width="12.2" height="24.65" shape-rendering="crispEdges"/><rect fill="#1e1e1e" x="1451.8" y="147.9" width="12.2" height="24.65" shape-rendering="crispEdges"/><rect fill="#1e1e1e" x="0" y="172.3" width="12.2" height="24.65" shape-rendering="crispEdges"/><rect fill="#191919" x="12.2" y="172.3" width="12.2" height="24.65" shape-rendering="crispEdges"/><rect fill="#1e1e1e" x="24.4" y="172.3" width="24.4" height="24.65" shape-rendering="crispEdges"/><rect fill="#1e1e1e" x="48.8" y="172.3" width="170.8" height="24.65" shape-rendering="crispEdges"/><rect fill="#1e1e1e" x="219.6" y="172.3" width="475.8" height="24.65" shape-rendering="crispEdges"/><rect fill="#1e1e1e" x="695.4" y="172.3" width="24.4" height="24.65" shape-rendering="crispEdges"/><rect fill="#1e1e1e" x="719.8" y="172.3" width="12.2" height="24.65" shape-rendering="crispEdges"/><rect fill="#191919" x="732" y="172.3" width="12.2" height="24.65" shape-rendering="crispEdges"/><rect fill="#1e1e1e" x="744.2" y="172.3" width="24.4" height="24.65" shape-rendering="crispEdges"/><rect fill="#1e1e1e" x="768.6" y="172.3" width="97.6" height="24.65" shape-rendering="crispEdges"/><rect fill="#1e1e1e" x="866.2" y="172.3" width="549" height="24.65" shape-rendering="crispEdges"/><rect fill="#1e1e1e" x="1415.2" y="172.3" width="24.4" height="24.65" shape-rendering="crispEdges"/><rect fill="#1e1e1e" x="1439.6" y="172.3" width="12.2" height="24.65" shape-rendering="crispEdges"/><rect fill="#1e1e1e" x="1451.8" y="172.3" width="12.2" height="24.65" shape-rendering="crispEdges"/><rect fill="#1e1e1e" x="0" y="196.7" width="12.2" height="24.65" shape-rendering="crispEdges"/><rect fill="#191919" x="12.2" y="196.7" width="12.2" height="24.65" shape-rendering="crispEdges"/><rect fill="#1e1e1e" x="24.4" y="196.7" width="695.4" height="24.65" shape-rendering="crispEdges"/><rect fill="#1e1e1e" x="719.8" y="196.7" width="12.2" height="24.65" shape-rendering="crispEdges"/><rect fill="#191919" x="732" y="196.7" width="12.2" height="24.65" shape-rendering="crispEdges"/><rect fill="#1e1e1e" x="744.2" y="196.7" width="695.4" height="24.65" shape-rendering="crispEdges"/><rect fill="#1e1e1e" x="1439.6" y="196.7" width="12.2" height="24.65" shape-rendering="crispEdges"/><rect fill="#1e1e1e" x="1451.8" y="196.7" width="12.2" height="24.65" shape-rendering="crispEdges"/><rect fill="#1e1e1e" x="0" y="221.1" width="12.2" height="24.65" shape-rendering="crispEdges"/><rect fill="#1e1e1e" x="12.2" y="221.1" width="1439.6" height="24.65" shape-rendering="crispEdges"/><rect fill="#1e1e1e" x="1451.8" y="221.1" width="12.2" height="24.65" shape-rendering="crispEdges"/><rect fill="#1e1e1e" x="0" y="245.5" width="12.2" height="24.65" shape-rendering="crispEdges"/><rect fill="#191919" x="12.2" y="245.5" width="12.2" height="24.65" shape-rendering="crispEdges"/><rect fill="#1e1e1e" x="24.4" y="245.5" width="1183.4" height="24.65" shape-rendering="crispEdges"/><rect fill="#1e1e1e" x="1207.8" y="245.5" width="12.2" height="24.65" shape-rendering="crispEdges"/><rect fill="#1e1e1e" x="1220" y="245.5" width="12.2" height="24.65" shape-rendering="crispEdges"/><rect fill="#4ebf71" x="1232.2" y="245.5" width="219.6" height="24.65" shape-rendering="crispEdges"/><rect fill="#1e1e1e" x="1451.8" y="245.5" width="12.2" height="24.65" shape-rendering="crispEdges"/><rect fill="#1e1e1e" x="0" y="269.9" width="12.2" height="24.65" shape-rendering="crispEdges"/><rect fill="#191919" x="12.2" y="269.9" width="12.2" height="24.65" shape-rendering="crispEdges"/><rect fill="#1e1e1e" x="24.4" y="269.9" width="24.4" height="24.65" shape-rendering="crispEdges"/><rect fill="#1e1e1e" x="48.8" y="269.9" width="12.2" height="24.65" shape-rendering="crispEdges"/><rect fill="#1e1e1e" x="61" y="269.9" width="1122.4" height="24.65" shape-rendering="crispEdges"/><rect fill="#1e1e1e" x="1183.4" y="269.9" width="24.4" height="24.65" shape-rendering="crispEdges"/><rect fill="#1e1e1e" x="1207.8" y="269.9" width="12.2" height="24.65" shape-rendering="crispEdges"/><rect fill="#1e1e1e" x="1220" y="269.9" width="12.2" height="24.65" shape-rendering="crispEdges"/><rect fill="#4ebf71" x="1232.2" y="269.9" width="219.6" height="24.65" shape-rendering="crispEdges"/><rect fill="#1e1e1e" x="1451.8" y="269.9" width="12.2" height="24.65" shape-rendering="crispEdges"/><rect fill="#1e1e1e" x="0" y="294.3" width="12.2" height="24.65" shape-rendering="crispEdges"/><rect fill="#191919" x="12.2" y="294.3" width="12.2" height="24.65" shape-rendering="crispEdges"/><rect fill="#1e1e1e" x="24.4" y="294.3" width="1183.4" height="24.65" shape-rendering="crispEdges"/><rect fill="#1e1e1e" x="1207.8" y="294.3" width="12.2" height="24.65" shape-rendering="crispEdges"/><rect fill="#1e1e1e" x="1220" y="294.3" width="12.2" height="24.65" shape-rendering="crispEdges"/><rect fill="#4ebf71" x="1232.2" y="294.3" width="219.6" height="24.65" shape-rendering="crispEdges"/><rect fill="#1e1e1e" x="1451.8" y="294.3" width="12.2" height="24.65" shape-rendering="crispEdges"/><rect fill="#1e1e1e" x="0" y="318.7" width="12.2" height="24.65" shape-rendering="crispEdges"/><rect fill="#1e1e1e" x="12.2" y="318.7" width="1439.6" height="24.65" shape-rendering="crispEdges"/><rect fill="#1e1e1e" x="1451.8" y="318.7" width="12.2" height="24.65" shape-rendering="crispEdges"/><rect fill="#1e1e1e" x="0" y="343.1" width="12.2" height="24.65" shape-rendering="crispEdges"/><rect fill="#1e1e1e" x="12.2" y="343.1" width="12.2" height="24.65" shape-rendering="crispEdges"/><rect fill="#1e1e1e" x="24.4" y="343.1" width="219.6" height="24.65" shape-rendering="crispEdges"/><rect fill="#1e1e1e" x="244" y="343.1" width="97.6" height="24.65" shape-rendering="crispEdges"/><rect fill="#1e1e1e" x="341.6" y="343.1" width="12.2" height="24.65" shape-rendering="crispEdges"/><rect fill="#1e1e1e" x="353.8" y="343.1" width="61" height="24.65" shape-rendering="crispEdges"/><rect fill="#1e1e1e" x="414.8" y="343.1" width="24.4" height="24.65" shape-rendering="crispEdges"/><rect fill="#1e1e1e" x="439.2" y="343.1" width="36.6" height="24.65" shape-rendering="crispEdges"/><rect fill="#1e1e1e" x="475.8" y="343.1" width="12.2" height="24.65" shape-rendering="crispEdges"/><rect fill="#1e1e1e" x="488" y="343.1" width="97.6" height="24.65" shape-rendering="crispEdges"/><rect fill="#1e1e1e" x="585.6" y="343.1" width="561.2" height="24.65" shape-rendering="crispEdges"/><rect fill="#1e1e1e" x="1146.8" y="343.1" width="305" height="24.65" shape-rendering="crispEdges"/><rect fill="#1e1e1e" x="1451.8" y="343.1" width="12.2" height="24.65" shape-rendering="crispEdges"/><rect fill="#1e1e1e" x="0" y="367.5" width="12.2" height="24.65" shape-rendering="crispEdges"/><rect fill="#1e1e1e" x="12.2" y="367.5" width="1439.6" height="24.65" shape-rendering="crispEdges"/><rect fill="#1e1e1e" x="1451.8" y="367.5" width="12.2" height="24.65" shape-rendering="crispEdges"/><rect fill="#1e1e1e" x="0" y="391.9" width="12.2" height="24.65" shape-rendering="crispEdges"/><rect fill="#242f38" x="12.2" y="391.9" width="12.2" height="24.65" shape-rendering="crispEdges"/><rect fill="#242f38" x="24.4" y="391.9" width="1390.8" height="24.65" shape-rendering="crispEdges"/><rect fill="#242f38" x="1415.2" y="391.9" width="12.2" height="24.65" shape-rendering="crispEdges"/><rect fill="#1e1e1e" x="1427.4" y="391.9" width="24.4" height="24.65" shape-rendering="crispEdges"/><rect fill="#1e1e1e" x="1451.8" y="391.9" width="12.2" height="24.65" shape-rendering="crispEdges"/><rect fill="#1e1e1e" x="0" y="416.3" width="12.2" height="24.65" shape-rendering="crispEdges"/><rect fill="#242f38" x="12.2" y="416.3" width="12.2" height="24.65" shape-rendering="crispEdges"/><rect fill="#242f38" x="24.4" y="416.3" width="292.8" height="24.65" shape-rendering="crispEdges"/><rect fill="#242f38" x="317.2" y="416.3" width="36.6" height="24.65" shape-rendering="crispEdges"/><rect fill="#242f38" x="353.8" y="416.3" width="1037" height="24.65" shape-rendering="crispEdges"/><rect fill="#000000" x="1390.8" y="416.3" width="24.4" height="24.65" shape-rendering="crispEdges"/><rect fill="#242f38" x="1415.2" y="416.3" width="12.2" height="24.65" shape-rendering="crispEdges"/><rect fill="#1e1e1e" x="1427.4" y="416.3" width="24.4" height="24.65" shape-rendering="crispEdges"/><rect fill="#1e1e1e" x="1451.8" y="416.3" width="12.2" height="24.65" shape-rendering="crispEdges"/><rect fill="#1e1e1e" x="0" y="440.7" width="12.2" height="24.65" shape-rendering="crispEdges"/><rect fill="#242f38" x="12.2" y="440.7" width="12.2" height="24.65" shape-rendering="crispEdges"/><rect fill="#242f38" x="24.4" y="440.7" width="341.6" height="24.65" shape-rendering="crispEdges"/><rect fill="#242f38" x="366" y="440.7" width="1024.8" height="24.65" shape-rendering="crispEdges"/><rect fill="#000000" x="1390.8" y="440.7" width="24.4" height="24.65" shape-rendering="crispEdges"/><rect fill="#242f38" x="1415.2" y="440.7" width="12.2" height="24.65" shape-rendering="crispEdges"/><rect fill="#1e1e1e" x="1427.4" y="440.7" width="24.4" height="24.65" shape-rendering="crispEdges"/><rect fill="#1e1e1e" x="1451.8" y="440.7" width="12.2" height="24.65" shape-rendering="crispEdges"/><rect fill="#1e1e1e" x="0" y="465.1" width="12.2" height="24.65" shape-rendering="crispEdges"/><rect fill="#242f38" x="12.2" y="465.1" width="12.2" height="24.65" shape-rendering="crispEdges"/><rect fill="#242f38" x="24.4" y="465.1" width="1366.4" height="24.65" shape-rendering="crispEdges"/><rect fill="#000000" x="1390.8" y="465.1" width="24.4" height="24.65" shape-rendering="crispEdges"/><rect fill="#242f38" x="1415.2" y="465.1" width="12.2" height="24.65" shape-rendering="crispEdges"/><rect fill="#1e1e1e" x="1427.4" y="465.1" width="24.4" height="24.65" shape-rendering="crispEdges"/><rect fill="#1e1e1e" x="1451.8" y="465.1" width="12.2" height="24.65" shape-rendering="crispEdges"/><rect fill="#1e1e1e" x="0" y="489.5" width="12.2" height="24.65" shape-rendering="crispEdges"/><rect fill="#242f38" x="12.2" y="489.5" width="12.2" height="24.65" shape-rendering="crispEdges"/><rect fill="#242f38" x="24.4" y="489.5" width="1366.4" height="24.65" shape-rendering="crispEdges"/><rect fill="#000000" x="1390.8" y="489.5" width="24.4" height="24.65" shape-rendering="crispEdges"/><rect fill="#242f38" x="1415.2" y="489.5" width="12.2" height="24.65" shape-rendering="crispEdges"/><rect fill="#1e1e1e" x="1427.4" y="489.5" width="24.4" height="24.65" shape-rendering="crispEdges"/><rect fill="#1e1e1e" x="1451.8" y="489.5" width="12.2" height="24.65" shape-rendering="crispEdges"/><rect fill="#1e1e1e" x="0" y="513.9" width="12.2" height="24.65" shape-rendering="crispEdges"/><rect fill="#242f38" x="12.2" y="513.9" width="12.2" height="24.65" shape-rendering="crispEdges"/><rect fill="#242f38" x="24.4" y="513.9" width="1366.4" height="24.65" shape-rendering="crispEdges"/><rect fill="#000000" x="1390.8" y="513.9" width="24.4" height="24.65" shape-rendering="crispEdges"/><rect fill="#242f38" x="1415.2" y="513.9" width="12.2" height="24.65" shape-rendering="crispEdges"/><rect fill="#1e1e1e" x="1427.4" y="513.9" width="24.4" height="24.65" shape-rendering="crispEdges"/><rect fill="#1e1e1e" x="1451.8" y="513.9" width="12.2" height="24.65" shape-rendering="crispEdges"/><rect fill="#1e1e1e" x="0" y="538.3" width="12.2" height="24.65" shape-rendering="crispEdges"/><rect fill="#242f38" x="12.2" y="538.3" width="12.2" height="24.65" shape-rendering="crispEdges"/><rect fill="#242f38" x="24.4" y="538.3" width="1366.4" height="24.65" shape-rendering="crispEdges"/><rect fill="#000000" x="1390.8" y="538.3" width="24.4" height="24.65" shape-rendering="crispEdges"/><rect fill="#242f38" x="1415.2" y="538.3" width="12.2" height="24.65" shape-rendering="crispEdges"/><rect fill="#1e1e1e" x="1427.4" y="538.3" width="24.4" height="24.65" shape-rendering="crispEdges"/><rect fill="#1e1e1e" x="1451.8" y="538.3" width="12.2" height="24.65" shape-rendering="crispEdges"/><rect fill="#1e1e1e" x="0" y="562.7" width="12.2" height="24.65" shape-rendering="crispEdges"/><rect fill="#242f38" x="12.2" y="562.7" width="12.2" height="24.65" shape-rendering="crispEdges"/><rect fill="#242f38" x="24.4" y="562.7" width="1366.4" height="24.65" shape-rendering="crispEdges"/><rect fill="#000000" x="1390.8" y="562.7" width="24.4" height="24.65" shape-rendering="crispEdges"/><rect fill="#242f38" x="1415.2" y="562.7" width="12.2" height="24.65" shape-rendering="crispEdges"/><rect fill="#1e1e1e" x="1427.4" y="562.7" width="24.4" height="24.65" shape-rendering="crispEdges"/><rect fill="#1e1e1e" x="1451.8" y="562.7" width="12.2" height="24.65" shape-rendering="crispEdges"/><rect fill="#1e1e1e" x="0" y="587.1" width="12.2" height="24.65" shape-rendering="crispEdges"/><rect fill="#242f38" x="12.2" y="587.1" width="12.2" height="24.65" shape-rendering="crispEdges"/><rect fill="#242f38" x="24.4" y="587.1" width="1366.4" height="24.65" shape-rendering="crispEdges"/><rect fill="#000000" x="1390.8" y="587.1" width="24.4" height="24.65" shape-rendering="crispEdges"/><rect fill="#242f38" x="1415.2" y="587.1" width="12.2" height="24.65" shape-rendering="crispEdges"/><rect fill="#1e1e1e" x="1427.4" y="587.1" width="24.4" height="24.65" shape-rendering="crispEdges"/><rect fill="#1e1e1e" x="1451.8" y="587.1" width="12.2" height="24.65" shape-rendering="crispEdges"/><rect fill="#1e1e1e" x="0" y="611.5" width="12.2" height="24.65" shape-rendering="crispEdges"/><rect fill="#242f38" x="12.2" y="611.5" width="12.2" height="24.65" shape-rendering="crispEdges"/><rect fill="#242f38" x="24.4" y="611.5" width="1366.4" height="24.65" shape-rendering="crispEdges"/><rect fill="#000000" x="1390.8" y="611.5" width="24.4" height="24.65" shape-rendering="crispEdges"/><rect fill="#242f38" x="1415.2" y="611.5" width="12.2" height="24.65" shape-rendering="crispEdges"/><rect fill="#1e1e1e" x="1427.4" y="611.5" width="24.4" height="24.65" shape-rendering="crispEdges"/><rect fill="#1e1e1e" x="1451.8" y="611.5" width="12.2" height="24.65" shape-rendering="crispEdges"/><rect fill="#1e1e1e" x="0" y="635.9" width="12.2" height="24.65" shape-rendering="crispEdges"/><rect fill="#242f38" x="12.2" y="635.9" width="12.2" height="24.65" shape-rendering="crispEdges"/><rect fill="#242f38" x="24.4" y="635.9" width="1366.4" height="24.65" shape-rendering="crispEdges"/><rect fill="#000000" x="1390.8" y="635.9" width="24.4" height="24.65" shape-rendering="crispEdges"/><rect fill="#242f38" x="1415.2" y="635.9" width="12.2" height="24.65" shape-rendering="crispEdges"/><rect fill="#1e1e1e" x="1427.4" y="635.9" width="24.4" height="24.65" shape-rendering="crispEdges"/><rect fill="#1e1e1e" x="1451.8" y="635.9" width="12.2" height="24.65" shape-rendering="crispEdges"/><rect fill="#1e1e1e" x="0" y="660.3" width="12.2" height="24.65" shape-rendering="crispEdges"/><rect fill="#242f38" x="12.2" y="660.3" width="12.2" height="24.65" shape-rendering="crispEdges"/><rect fill="#242f38" x="24.4" y="660.3" width="1366.4" height="24.65" shape-rendering="crispEdges"/><rect fill="#000000" x="1390.8" y="660.3" width="24.4" height="24.65" shape-rendering="crispEdges"/><rect fill="#242f38" x="1415.2" y="660.3" width="12.2" height="24.65" shape-rendering="crispEdges"/><rect fill="#1e1e1e" x="1427.4" y="660.3" width="24.4" height="24.65" shape-rendering="crispEdges"/><rect fill="#1e1e1e" x="1451.8" y="660.3" width="12.2" height="24.65" shape-rendering="crispEdges"/><rect fill="#1e1e1e" x="0" y="684.7" width="12.2" height="24.65" shape-rendering="crispEdges"/><rect fill="#242f38" x="12.2" y="684.7" width="12.2" height="24.65" shape-rendering="crispEdges"/><rect fill="#242f38" x="24.4" y="684.7" width="1390.8" height="24.65" shape-rendering="crispEdges"/><rect fill="#242f38" x="1415.2" y="684.7" width="12.2" height="24.65" shape-rendering="crispEdges"/><rect fill="#1e1e1e" x="1427.4" y="684.7" width="24.4" height="24.65" shape-rendering="crispEdges"/><rect fill="#1e1e1e" x="1451.8" y="684.7" width="12.2" height="24.65" shape-rendering="crispEdges"/><rect fill="#1e1e1e" x="0" y="709.1" width="1464" height="24.65" shape-rendering="crispEdges"/>
    <g class="terminal-3474482799-matrix">
    <text class="terminal-3474482799-r2" x="12.2" y="20" textLength="12.2" clip-path="url(#terminal-3474482799-line-0)">⭘</text><text class="terminal-3474482799-r2" x="634.4" y="20" textLength="158.6" clip-path="url(#terminal-3474482799-line-0)">BaixarMusicas</text><text class="terminal-3474482799-r1" x="1464" y="20" textLength="12.2" clip-path="url(#terminal-3474482799-line-0)">
</text><text class="terminal-3474482799-r3" x="12.2" y="44.4" textLength="109.8" clip-path="url(#terminal-3474482799-line-1)">Downloads</text><text class="terminal-3474482799-r4" x="146.4" y="44.4" textLength="85.4" clip-path="url(#terminal-3474482799-line-1)">Exports</text><text class="terminal-3474482799-r4" x="256.2" y="44.4" textLength="61" clip-path="url(#terminal-3474482799-line-1)">Sobre</text><text class="terminal-3474482799-r1" x="1464" y="44.4" textLength="12.2" clip-path="url(#terminal-3474482799-line-1)">
</text><text class="terminal-3474482799-r5" x="0" y="68.8" textLength="12.2" clip-path="url(#terminal-3474482799-line-2)">╸</text><text class="terminal-3474482799-r6" x="12.2" y="68.8" textLength="109.8" clip-path="url(#terminal-3474482799-line-2)">━━━━━━━━━</text><text class="terminal-3474482799-r5" x="122" y="68.8" textLength="12.2" clip-path="url(#terminal-3474482799-line-2)">╺</text><text class="terminal-3474482799-r5" x="134.2" y="68.8" textLength="1329.8" clip-path="url(#terminal-3474482799-line-2)">━━━━━━━━━━━━━━━━━━━━━━━━━━━━━━━━━━━━━━━━━━━━━━━━━━━━━━━━━━━━━━━━━━━━━━━━━━━━━━━━━━━━━━━━━━━━━━━━━━━━━━━━━━━━━</text><text class="terminal-3474482799-r1" x="1464" y="68.8" textLength="12.2" clip-path="url(#terminal-3474482799-line-2)">
</text><text class="terminal-3474482799-r1" x="1464" y="93.2" textLength="12.2" clip-path="url(#terminal-3474482799-line-3)">
</text><text class="terminal-3474482799-r7" x="414.8" y="117.6" textLength="622.2" clip-path="url(#terminal-3474482799-line-4)">Baixe&#160;suas&#160;musicas&#160;atraves&#160;do&#160;arquivo&#160;csv&#160;exportado</text><text class="terminal-3474482799-r1" x="1464" y="117.6" textLength="12.2" clip-path="url(#terminal-3474482799-line-4)">
</text><text class="terminal-3474482799-r1" x="1464" y="142" textLength="12.2" clip-path="url(#terminal-3474482799-line-5)">
</text><text class="terminal-3474482799-r8" x="12.2" y="166.4" textLength="12.2" clip-path="url(#terminal-3474482799-line-6)">▊</text><text class="terminal-3474482799-r9" x="24.4" y="166.4" textLength="695.4" clip-path="url(#terminal-3474482799-line-6)">▔▔▔▔▔▔▔▔▔▔▔▔▔▔▔▔▔▔▔▔▔▔▔▔▔▔▔▔▔▔▔▔▔▔▔▔▔▔▔▔▔▔▔▔▔▔▔▔▔▔▔▔▔▔▔▔▔</text><text class="terminal-3474482799-r9" x="719.8" y="166.4" textLength="12.2" clip-path="url(#terminal-3474482799-line-6)">▎</text><text class="terminal-3474482799-r8" x="732" y="166.4" textLength="12.2" clip-path="url(#terminal-3474482799-line-6)">▊</text><text class="terminal-3474482799-r9" x="744.2" y="166.4" textLength="695.4" clip-path="url(#terminal-3474482799-line-6)">▔▔▔▔▔▔▔▔▔▔▔▔▔▔▔▔▔▔▔▔▔▔▔▔▔▔▔▔▔▔▔▔▔▔▔▔▔▔▔▔▔▔▔▔▔▔▔▔▔▔▔▔▔▔▔▔▔</text><text class="terminal-3474482799-r9" x="1439.6" y="166.4" textLength="12.2" clip-path="url(#terminal-3474482799-line-6)">▎</text><text class="terminal-3474482799-r1" x="1464" y="166.4" textLength="12.2" clip-path="url(#terminal-3474482799-line-6)">
</text><text class="terminal-3474482799-r8" x="12.2" y="190.8" textLength="12.2" clip-path="url(#terminal-3474482799-line-7)">▊</text><text class="terminal-3474482799-r2" x="48.8" y="190.8" textLength="170.8" clip-path="url(#terminal-3474482799-line-7)">./playlist.csv</text><text class="terminal-3474482799-r9" x="719.8" y="190.8" textLength="12.2" clip-path="url(#terminal-3474482799-line-7)">▎</text><text class="terminal-3474482799-r8" x="732" y="190.8" textLength="12.2" clip-path="url(#terminal-3474482799-line-7)">▊</text><text class="terminal-3474482799-r2" x="768.6" y="190.8" textLength="97.6" clip-path="url(#terminal-3474482799-line-7)">./musics</text><text class="terminal-3474482799-r9" x="1439.6" y="190.8" textLength="12.2" clip-path="url(#terminal-3474482799-line-7)">▎</text><text class="terminal-3474482799-r1" x="1464" y="190.8" textLength="12.2" clip-path="url(#terminal-3474482799-line-7)">
</text><text class="terminal-3474482799-r8" x="12.2" y="215.2" textLength="12.2" clip-path="url(#terminal-3474482799-line-8)">▊</text><text class="terminal-3474482799-r9" x="24.4" y="215.2" textLength="695.4" clip-path="url(#terminal-3474482799-line-8)">▁▁▁▁▁▁▁▁▁▁▁▁▁▁▁▁▁▁▁▁▁▁▁▁▁▁▁▁▁▁▁▁▁▁▁▁▁▁▁▁▁▁▁▁▁▁▁▁▁▁▁▁▁▁▁▁▁</text><text class="terminal-3474482799-r9" x="719.8" y="215.2" textLength="12.2" clip-path="url(#terminal-3474482799-line-8)">▎</text><text class="terminal-3474482799-r8" x="732" y="215.2" textLength="12.2" clip-path="url(#terminal-3474482799-line-8)">▊</text><text class="terminal-3474482799-r9" x="744.2" y="215.2" textLength="695.4" clip-path="url(#terminal-3474482799-line-8)">▁▁▁▁▁▁▁▁▁▁▁▁▁▁▁▁▁▁▁▁▁▁▁▁▁▁▁▁▁▁▁▁▁▁▁▁▁▁▁▁▁▁▁▁▁▁▁▁▁▁▁▁▁▁▁▁▁</text><text class="terminal-3474482799-r9" x="1439.6" y="215.2" textLength="12.2" clip-path="url(#terminal-3474482799-line-8)">▎</text><text class="terminal-3474482799-r1" x="1464" y="215.2" textLength="12.2" clip-path="url(#terminal-3474482799-line-8)">
</text><text class="terminal-3474482799-r1" x="1464" y="239.6" textLength="12.2" clip-path="url(#terminal-3474482799-line-9)">
</text><text class="terminal-3474482799-r8" x="12.2" y="264" textLength="12.2" clip-path="url(#terminal-3474482799-line-10)">▊</text><text class="terminal-3474482799-r9" x="24.4" y="264" textLength="1183.4" clip-path="url(#terminal-3474482799-line-10)">▔▔▔▔▔▔▔▔▔▔▔▔▔▔▔▔▔▔▔▔▔▔▔▔▔▔▔▔▔▔▔▔▔▔▔▔▔▔▔▔▔▔▔▔▔▔▔▔▔▔▔▔▔▔▔▔▔▔▔▔▔▔▔▔▔▔▔▔▔▔▔▔▔▔▔▔▔▔▔▔▔▔▔▔▔▔▔▔▔▔▔▔▔▔▔▔▔</text><text class="terminal-3474482799-r9" x="1207.8" y="264" textLength="12.2" clip-path="url(#terminal-3474482799-line-10)">▎</text><text class="terminal-3474482799-r10" x="1232.2" y="264" textLength="219.6" clip-path="url(#terminal-3474482799-line-10)">▔▔▔▔▔▔▔▔▔▔▔▔▔▔▔▔▔▔</text><text class="terminal-3474482799-r1" x="1464" y="264" textLength="12.2" clip-path="url(#terminal-3474482799-line-10)">
</text><text class="terminal-3474482799-r8" x="12.2" y="288.4" textLength="12.2" clip-path="url(#terminal-3474482799-line-11)">▊</text><text class="terminal-3474482799-r2" x="48.8" y="288.4" textLength="12.2" clip-path="url(#terminal-3474482799-line-11)">4</text><text class="terminal-3474482799-r9" x="1207.8" y="288.4" textLength="12.2" clip-path="url(#terminal-3474482799-line-11)">▎</text><text class="terminal-3474482799-r11" x="1232.2" y="288.4" textLength="219.6" clip-path="url(#terminal-3474482799-line-11)">&#160;Iniciar&#160;Download&#160;</text><text class="terminal-3474482799-r1" x="1464" y="288.4" textLength="12.2" clip-path="url(#terminal-3474482799-line-11)">
</text><text class="terminal-3474482799-r8" x="12.2" y="312.8" textLength="12.2" clip-path="url(#terminal-3474482799-line-12)">▊</text><text class="terminal-3474482799-r9" x="24.4" y="312.8" textLength="1183.4" clip-path="url(#terminal-3474482799-line-12)">▁▁▁▁▁▁▁▁▁▁▁▁▁▁▁▁▁▁▁▁▁▁▁▁▁▁▁▁▁▁▁▁▁▁▁▁▁▁▁▁▁▁▁▁▁▁▁▁▁▁▁▁▁▁▁▁▁▁▁▁▁▁▁▁▁▁▁▁▁▁▁▁▁▁▁▁▁▁▁▁▁▁▁▁▁▁▁▁▁▁▁▁▁▁▁▁▁</text><text class="terminal-3474482799-r9" x="1207.8" y="312.8" textLength="12.2" clip-path="url(#terminal-3474482799-line-12)">▎</text><text class="terminal-3474482799-r12" x="1232.2" y="312.8" textLength="219.6" clip-path="url(#terminal-3474482799-line-12)">▁▁▁▁▁▁▁▁▁▁▁▁▁▁▁▁▁▁</text><text class="terminal-3474482799-r1" x="1464" y="312.8" textLength="12.2" clip-path="url(#terminal-3474482799-line-12)">
</text><text class="terminal-3474482799-r1" x="1464" y="337.2" textLength="12.2" clip-path="url(#terminal-3474482799-line-13)">
</text><text class="terminal-3474482799-r8" x="24.4" y="361.6" textLength="219.6" clip-path="url(#terminal-3474482799-line-14)">━━━━━━━━━━━━━━━━━━</text><text class="terminal-3474482799-r13" x="244" y="361.6" textLength="97.6" clip-path="url(#terminal-3474482799-line-14)">╺━━━━━━━</text><text class="terminal-3474482799-r13" x="341.6" y="361.6" textLength="12.2" clip-path="url(#terminal-3474482799-line-14)">╸</text><text class="terminal-3474482799-r8" x="353.8" y="361.6" textLength="61" clip-path="url(#terminal-3474482799-line-14)">━━━━━</text><text class="terminal-3474482799-r2" x="439.2" y="361.6" textLength="36.6" clip-path="url(#terminal-3474482799-line-14)">--%</text><text class="terminal-3474482799-r2" x="488" y="361.6" textLength="97.6" clip-path="url(#terminal-3474482799-line-14)">--:--:--</text><text class="terminal-3474482799-r1" x="1464" y="361.6" textLength="12.2" clip-path="url(#terminal-3474482799-line-14)">
</text><text class="terminal-3474482799-r1" x="1464" y="386" textLength="12.2" clip-path="url(#terminal-3474482799-line-15)">
</text><text class="terminal-3474482799-r6" x="12.2" y="410.4" textLength="12.2" clip-path="url(#terminal-3474482799-line-16)">┌</text><text class="terminal-3474482799-r6" x="24.4" y="410.4" textLength="1390.8" clip-path="url(#terminal-3474482799-line-16)">──────────────────────────────────────────────────────────────────────────────────────────────────────────────────</text><text class="terminal-3474482799-r6" x="1415.2" y="410.4" textLength="12.2" clip-path="url(#terminal-3474482799-line-16)">┐</text><text class="terminal-3474482799-r1" x="1464" y="410.4" textLength="12.2" clip-path="url(#terminal-3474482799-line-16)">
</text><text class="terminal-3474482799-r6" x="12.2" y="434.8" textLength="12.2" clip-path="url(#terminal-3474482799-line-17)">│</text><text class="terminal-3474482799-r14" x="24.4" y="434.8" textLength="292.8" clip-path="url(#terminal-3474482799-line-17)">Verificando&#160;dependências</text><text class="terminal-3474482799-r15" x="317.2" y="434.8" textLength="36.6" clip-path="url(#terminal-3474482799-line-17)">...</text><text class="terminal-3474482799-r6" x="1415.2" y="434.8" textLength="12.2" clip-path="url(#terminal-3474482799-line-17)">│</text><text class="terminal-3474482799-r1" x="1464" y="434.8" textLength="12.2" clip-path="url(#terminal-3474482799-line-17)">
</text><text class="terminal-3474482799-r6" x="12.2" y="459.2" textLength="12.2" clip-path="url(#terminal-3474482799-line-18)">│</text><text class="terminal-3474482799-r16" x="24.4" y="459.2" textLength="341.6" clip-path="url(#terminal-3474482799-line-18)">Downloader&#160;detectado:&#160;yt-dlp</text><text class="terminal-3474482799-r6" x="1415.2" y="459.2" textLength="12.2" clip-path="url(#terminal-3474482799-line-18)">│</text><text class="terminal-3474482799-r1" x="1464" y="459.2" textLength="12.2" clip-path="url(#terminal-3474482799-line-18)">
</text><text class="terminal-3474482799-r6" x="12.2" y="483.6" textLength="12.2" clip-path="url(#terminal-3474482799-line-19)">│</text><text class="terminal-3474482799-r6" x="1415.2" y="483.6" textLength="12.2" clip-path="url(#terminal-3474482799-line-19)">│</text><text class="terminal-3474482799-r1" x="1464" y="483.6" textLength="12.2" clip-path="url(#terminal-3474482799-line-19)">
</text><text class="terminal-3474482799-r6" x="12.2" y="508" textLength="12.2" clip-path="url(#terminal-3474482799-line-20)">│</text><text class="terminal-3474482799-r6" x="1415.2" y="508" textLength="12.2" clip-path="url(#terminal-3474482799-line-20)">│</text><text class="terminal-3474482799-r1" x="1464" y="508" textLength="12.2" clip-path="url(#terminal-3474482799-line-20)">
</text><text class="terminal-3474482799-r6" x="12.2" y="532.4" textLength="12.2" clip-path="url(#terminal-3474482799-line-21)">│</text><text class="terminal-3474482799-r6" x="1415.2" y="532.4" textLength="12.2" clip-path="url(#terminal-3474482799-line-21)">│</text><text class="terminal-3474482799-r1" x="1464" y="532.4" textLength="12.2" clip-path="url(#terminal-3474482799-line-21)">
</text><text class="terminal-3474482799-r6" x="12.2" y="556.8" textLength="12.2" clip-path="url(#terminal-3474482799-line-22)">│</text><text class="terminal-3474482799-r6" x="1415.2" y="556.8" textLength="12.2" clip-path="url(#terminal-3474482799-line-22)">│</text><text class="terminal-3474482799-r1" x="1464" y="556.8" textLength="12.2" clip-path="url(#terminal-3474482799-line-22)">
</text><text class="terminal-3474482799-r6" x="12.2" y="581.2" textLength="12.2" clip-path="url(#terminal-3474482799-line-23)">│</text><text class="terminal-3474482799-r6" x="1415.2" y="581.2" textLength="12.2" clip-path="url(#terminal-3474482799-line-23)">│</text><text class="terminal-3474482799-r1" x="1464" y="581.2" textLength="12.2" clip-path="url(#terminal-3474482799-line-23)">
</text><text class="terminal-3474482799-r6" x="12.2" y="605.6" textLength="12.2" clip-path="url(#terminal-3474482799-line-24)">│</text><text class="terminal-3474482799-r6" x="1415.2" y="605.6" textLength="12.2" clip-path="url(#terminal-3474482799-line-24)">│</text><text class="terminal-3474482799-r1" x="1464" y="605.6" textLength="12.2" clip-path="url(#terminal-3474482799-line-24)">
</text><text class="terminal-3474482799-r6" x="12.2" y="630" textLength="12.2" clip-path="url(#terminal-3474482799-line-25)">│</text><text class="terminal-3474482799-r6" x="1415.2" y="630" textLength="12.2" clip-path="url(#terminal-3474482799-line-25)">│</text><text class="terminal-3474482799-r1" x="1464" y="630" textLength="12.2" clip-path="url(#terminal-3474482799-line-25)">
</text><text class="terminal-3474482799-r6" x="12.2" y="654.4" textLength="12.2" clip-path="url(#terminal-3474482799-line-26)">│</text><text class="terminal-3474482799-r6" x="1415.2" y="654.4" textLength="12.2" clip-path="url(#terminal-3474482799-line-26)">│</text><text class="terminal-3474482799-r1" x="1464" y="654.4" textLength="12.2" clip-path="url(#terminal-3474482799-line-26)">
</text><text class="terminal-3474482799-r6" x="12.2" y="678.8" textLength="12.2" clip-path="url(#terminal-3474482799-line-27)">│</text><text class="terminal-3474482799-r6" x="1415.2" y="678.8" textLength="12.2" clip-path="url(#terminal-3474482799-line-27)">│</text><text class="terminal-3474482799-r1" x="1464" y="678.8" textLength="12.2" clip-path="url(#terminal-3474482799-line-27)">
</text><text class="terminal-3474482799-r6" x="12.2" y="703.2" textLength="12.2" clip-path="url(#terminal-3474482799-line-28)">└</text><text class="terminal-3474482799-r6" x="24.4" y="703.2" textLength="1390.8" clip-path="url(#terminal-3474482799-line-28)">──────────────────────────────────────────────────────────────────────────────────────────────────────────────────</text><text class="terminal-3474482799-r6" x="1415.2" y="703.2" textLength="12.2" clip-path="url(#terminal-3474482799-line-28)">┘</text><text class="terminal-3474482799-r1" x="1464" y="703.2" textLength="12.2" clip-path="url(#terminal-3474482799-line-28)">
</text>
    </g>
    </g>
</svg>
